:SAMPLES-PER-SECOND 30
:FRAME-RANGE 1-2775
:FULLY-SPECIFIED
:DEGREES
521
root  -58.6057 38.2287 48.1199 -173.439 84.5786 -174.587
RightUpLeg  -21.8955 1.37954 -0.434705
RightLeg  -0.409304 -12.5646 0.736976
RightFoot  -2.09986 -0.874953 10.6191
RightToes  1.218e-010 1.26228e-014 -6.01869e-014
Spine  -8.10418 -2.18472 -3.06053
Spine1  10.6009 -1.94532 -0.305986
HEad  6.63594 5.04672 0.415008
LeftShoulder1  2.1312 -4.9659 -19.5343
LeftArm  27.8951 -14.5358 -54.5774
LeftForeArm  22.8157 -14.2193 -10.5584
LeftHand  -0.0311201 3.94606 0.89883
RightShoulder  1.42272 1.10219 26.214
RightArm  -14.1116 -30.2532 33.093
RightForeArm  48.838 29.4872 3.79597
RightHand  -0.00844361 2.29059 -0.316636
LeftUpLeg  4.00154 1.18472 -7.38642
LeftLeg  14.4182 -2.03642 0.35122
LeftFoot  -18.1178 0.593822 8.1724
LeftToes  5.08156e-010 -6.90346e-011 -6.33378e-011
522
root  -57.5116 38.0218 48.0822 -176.411 84.28 -177.602
RightUpLeg  -22.2709 1.70906 0.0627204
RightLeg  1.09505 -11.8236 0.433499
RightFoot  -3.36877 -0.769265 10.6792
RightToes  1.218e-010 1.26228e-014 -6.01869e-014
Spine  -8.09168 -2.37925 -3.16382
Spine1  10.4876 -2.17023 -0.273892
HEad  6.83377 5.48601 -0.261854
LeftShoulder1  2.12769 -4.93128 -19.6048
LeftArm  26.7611 -15.1399 -54.0277
LeftForeArm  22.7606 -13.7952 -10.8113
LeftHand  -0.034412 4.10877 1.18631
RightShoulder  1.35033 0.89337 26.0785
RightArm  -14.7636 -29.887 33.9231
RightForeArm  48.2462 28.9584 3.70922
RightHand  -0.0879243 1.86388 -1.57313
LeftUpLeg  5.35887 1.19039 -7.48754
LeftLeg  15.4638 -2.40993 0.248739
LeftFoot  -19.5012 0.646518 7.40713
LeftToes  5.08156e-010 -6.90346e-011 -6.33378e-011
523
root  -56.427 37.9646 47.9984 -174.948 83.7083 -176.195
RightUpLeg  -22.796 1.85754 0.972309
RightLeg  4.603 -9.0667 -0.372281
RightFoot  -0.788582 -0.799424 8.58218
RightToes  1.218e-010 1.26228e-014 -6.01869e-014
Spine  -8.09562 -2.62119 -2.75953
Spine1  10.7267 -2.69079 0.376562
HEad  7.0046 6.0682 -1.35705
LeftShoulder1  2.15977 -5.0529 -19.6137
LeftArm  23.6708 -15.4488 -53.4663
LeftForeArm  24.282 -12.3945 -11.5531
LeftHand  -0.0362877 4.13107 1.3858
RightShoulder  1.273 0.656622 26.0333
RightArm  -14.0422 -29.0257 33.7465
RightForeArm  46.4588 28.6655 3.72986
RightHand  -0.156274 1.08618 -2.91798
LeftUpLeg  6.92725 0.857872 -7.1065
LeftLeg  15.8316 -2.89824 0.0432397
LeftFoot  -19.6743 0.587642 6.43465
LeftToes  5.08156e-010 -6.90346e-011 -6.33378e-011
524
root  -55.3025 38.0768 47.8945 -167.384 82.7014 -168.71
RightUpLeg  -22.8972 3.4375 2.2372
RightLeg  6.9411 -8.56219 -1.67147
RightFoot  3.83277 -0.687375 5.35323
RightToes  1.218e-010 1.26228e-014 -6.01869e-014
Spine  -8.17018 -2.89109 -1.69753
Spine1  11.137 -3.61375 1.93887
HEad  6.98695 6.78511 -2.65069
LeftShoulder1  2.19558 -5.2636 -19.3801
LeftArm  19.1956 -14.998 -53.2969
LeftForeArm  26.7586 -10.2064 -12.4807
LeftHand  -0.0431836 4.11448 2.0578
RightShoulder  1.14378 0.222752 26.3066
RightArm  -12.1779 -27.6872 32.5368
RightForeArm  44.6199 28.7152 3.82821
RightHand  -0.194269 0.516105 -3.89279
LeftUpLeg  8.49262 -0.243594 -5.91104
LeftLeg  15.9433 -3.01209 -0.11365
LeftFoot  -18.6004 0.420206 4.85879
LeftToes  5.08156e-010 -6.90346e-011 -6.33378e-011
525
root  -54.0823 38.1729 47.7743 -159.065 82.028 -160.454
RightUpLeg  -22.7141 4.26516 3.57404
RightLeg  9.65966 -9.39517 -2.388
RightFoot  5.18642 -0.581262 4.24439
RightToes  1.218e-010 1.26228e-014 -6.01869e-014
Spine  -8.38714 -3.10214 -0.356418
Spine1  11.3169 -4.29082 3.11254
HEad  6.94829 7.68957 -3.80504
LeftShoulder1  2.21287 -5.41756 -19.1067
LeftArm  13.306 -13.842 -53.2619
LeftForeArm  30.8006 -7.45041 -13.1593
LeftHand  -0.0429678 4.21455 2.17046
RightShoulder  0.995146 -0.306894 27.0677
RightArm  -8.39839 -25.2285 30.1901
RightForeArm  42.5795 28.7641 3.93809
RightHand  -0.198868 -0.170803 -4.43319
LeftUpLeg  9.2258 -1.32436 -4.4628
LeftLeg  17.8834 -2.84544 -0.571249
LeftFoot  -17.124 0.230173 2.52116
LeftToes  5.08156e-010 -6.90346e-011 -6.33378e-011
